<svg width="125" height="50" viewBox="0 0 125 50" fill="none" xmlns="http://www.w3.org/2000/svg">
<path fill-rule="evenodd" clip-rule="evenodd" d="M0.264926 46.8391L0 47.0477V49.6634L0.264926 49.8504H20.356L20.621 49.6634V47.0477L20.356 46.8391L17.9055 46.7C16.5588 46.6768 15.8854 46.5609 15.8854 45.6568C15.8854 45.4481 15.9406 45.1699 16.051 44.8222C16.1614 44.4513 17.3756 42.3649 19.6937 38.5631L28.7674 23.7151L40.5235 4.48571H41.4176V49.8504H47.5507V0.139092C47.5507 0.139092 34.6841 0.231819 32.5426 0.139092C30.4011 0.0463639 29.1317 0 28.7343 0L28.4694 0.24341V1.98206L28.7343 2.22547C32.8407 2.43411 35.3243 2.71229 36.1854 3.06002C37.0684 3.38456 37.51 3.91775 37.51 4.65957C37.51 5.05366 37.3665 5.50571 37.0795 6.01571C36.9641 6.2157 35.4039 8.58621 33.1139 12.0512C32.868 12.1914 30.77 12.3146 24.4955 12.1642C22.3541 12.0715 21.0846 12.0251 20.6872 12.0251L20.4223 12.2685V14.0072L20.6872 14.2506C24.7936 14.4592 27.2773 14.7374 28.1383 15.0851C29.0213 15.4097 29.4629 15.9429 29.4629 16.6847C29.4629 16.9262 29.409 17.3803 29.3012 17.8132C28.0856 19.6489 26.8002 21.5887 25.5014 23.5479L17.1694 23.4437C15.0279 23.351 13.7584 23.3046 13.3611 23.3046L13.0961 23.548V25.2867L13.3611 25.5301C17.4674 25.7387 19.9511 26.0169 20.8121 26.3646C21.6952 26.6892 22.1367 27.2224 22.1367 27.9642C22.1367 28.1429 22.1072 28.4382 22.0481 28.7552C20.9597 30.3959 19.8978 31.996 18.8974 33.5029C18.5112 33.8791 18.1869 34.1014 17.879 34.2798C17.4352 34.5369 14.2669 34.5311 11.7617 34.5265C10.6531 34.5245 9.67442 34.5227 9.11909 34.5441C8.1546 34.5031 6.67266 34.4459 6.27527 34.4459L6.01035 34.6893V36.428L6.27527 36.6714C10.3816 36.88 12.8653 37.1582 13.7263 37.5059C14.6094 37.8305 15.0509 38.3637 15.0509 39.1055C15.0509 39.162 15.048 39.2302 15.0421 39.307C13.7492 41.2519 12.7895 42.6933 12.342 43.3618C11.1499 45.1004 10.2337 45.8075 9.59345 46.1784C9.14766 46.4366 6.67772 46.8878 4 47C3.4888 47 2.66785 46.9524 1.91398 46.9087L1.91375 46.9087H1.91371H1.91364C1.19296 46.8669 0.533632 46.8287 0.264926 46.8391ZM62.0979 45.0007C62.125 44.6589 62.1386 44.3954 62.1386 44.2102C62.1386 43.0423 61.9012 42.0168 61.4265 41.1337C60.9653 40.2364 60.3142 39.5457 59.4732 39.0614C58.6458 38.5629 57.7031 38.3136 56.6451 38.3136C55.5735 38.3136 54.6105 38.5629 53.7559 39.0614C52.9014 39.5599 52.23 40.2578 51.7417 41.1551C51.2669 42.0382 51.0295 43.0352 51.0295 44.1461C51.0295 45.2713 51.2737 46.2826 51.762 47.1799C52.2639 48.063 52.9692 48.7537 53.878 49.2522C54.7868 49.7507 55.838 50 57.0317 50C57.9676 50 58.8086 49.8433 59.5546 49.53C60.3007 49.2166 60.9178 48.7537 61.4061 48.1413L60.0429 46.4962C59.2698 47.3223 58.2864 47.7354 57.0927 47.7354C56.1568 47.7354 55.3701 47.4932 54.7326 47.009C54.1086 46.5105 53.722 45.841 53.5728 45.0007H62.0979ZM54.5698 41.2192C55.1395 40.7065 55.8313 40.4501 56.6451 40.4501C57.4725 40.4501 58.1643 40.7065 58.7204 41.2192C59.2766 41.732 59.6089 42.4014 59.7174 43.2275H53.5525C53.6746 42.3871 54.0137 41.7177 54.5698 41.2192ZM66.8329 49.2522C67.7281 49.7507 68.7386 50 69.8645 50C70.9225 50 71.8516 49.7721 72.6519 49.3163C73.4658 48.8463 74.0829 48.184 74.5034 47.3294L72.5502 46.133C72.2382 46.66 71.8448 47.0588 71.3701 47.3294C70.9089 47.5858 70.4003 47.714 69.8441 47.714C68.8811 47.714 68.0876 47.3935 67.4636 46.7526C66.8532 46.0974 66.548 45.2286 66.548 44.1461C66.548 43.0637 66.86 42.202 67.484 41.561C68.1079 40.9059 68.8946 40.5783 69.8441 40.5783C70.4003 40.5783 70.9089 40.7136 71.3701 40.9842C71.8448 41.2406 72.2382 41.6323 72.5502 42.1592L74.5034 40.9628C74.0965 40.1082 73.4861 39.4531 72.6723 38.9973C71.872 38.5415 70.9361 38.3136 69.8645 38.3136C68.7251 38.3136 67.7078 38.5629 66.8125 39.0614C65.9309 39.5599 65.2391 40.2507 64.7372 41.1337C64.2353 42.0168 63.9844 43.0209 63.9844 44.1461C63.9844 45.2713 64.2353 46.2826 64.7372 47.1799C65.2391 48.063 65.9376 48.7537 66.8329 49.2522ZM86.7568 44.2102C86.7568 44.3954 86.7433 44.6589 86.7161 45.0007H78.191C78.3402 45.841 78.7268 46.5105 79.3508 47.009C79.9883 47.4932 80.775 47.7354 81.7109 47.7354C82.9046 47.7354 83.888 47.3223 84.6612 46.4962L86.0244 48.1413C85.536 48.7537 84.9189 49.2166 84.1728 49.53C83.4268 49.8433 82.5858 50 81.6499 50C80.4563 50 79.405 49.7507 78.4962 49.2522C77.5874 48.7537 76.8821 48.063 76.3802 47.1799C75.8919 46.2826 75.6478 45.2713 75.6478 44.1461C75.6478 43.0352 75.8851 42.0382 76.3599 41.1551C76.8482 40.2578 77.5196 39.5599 78.3742 39.0614C79.2287 38.5629 80.1918 38.3136 81.2633 38.3136C82.3213 38.3136 83.264 38.5629 84.0915 39.0614C84.9324 39.5457 85.5835 40.2364 86.0447 41.1337C86.5195 42.0168 86.7568 43.0423 86.7568 44.2102ZM81.2633 40.4501C80.4495 40.4501 79.7577 40.7065 79.188 41.2192C78.6319 41.7177 78.2928 42.3871 78.1707 43.2275H84.3356C84.2271 42.4014 83.8948 41.732 83.3386 41.2192C82.7825 40.7065 82.0907 40.4501 81.2633 40.4501ZM92.0818 38.4418H89.5385V49.8505H92.0818V45.3425H97.555V49.8505H100.098V38.4418H97.555V43.0779H92.0818V38.4418ZM108.024 45.2785H106.05V49.8505H103.507V38.4418H106.05V43.0565H108.085L111.299 38.4418H114.026L110.079 43.9325L114.29 49.8505H111.299L108.024 45.2785ZM123.597 39.5314C122.756 38.7196 121.535 38.3136 119.934 38.3136C119.039 38.3136 118.191 38.4347 117.391 38.6768C116.591 38.919 115.906 39.2679 115.336 39.7237L116.333 41.6679C116.74 41.3118 117.235 41.034 117.818 40.8346C118.415 40.6352 119.019 40.5355 119.629 40.5355C120.524 40.5355 121.196 40.7492 121.643 41.1765C122.105 41.6038 122.335 42.2162 122.335 43.0138V43.1847H119.527C117.967 43.1847 116.821 43.4981 116.089 44.1248C115.37 44.7372 115.01 45.5562 115.01 46.5817C115.01 47.2369 115.173 47.8279 115.499 48.3549C115.838 48.8677 116.313 49.2736 116.923 49.5727C117.533 49.8576 118.246 50 119.059 50C119.873 50 120.565 49.8718 121.135 49.6154C121.718 49.3448 122.166 48.9603 122.478 48.4618V49.8505H124.878V43.1634C124.878 41.5397 124.451 40.329 123.597 39.5314ZM121.277 47.6072C120.789 47.9063 120.226 48.0558 119.588 48.0558C118.937 48.0558 118.429 47.9134 118.062 47.6285C117.696 47.3437 117.513 46.9591 117.513 46.4749C117.513 45.4636 118.246 44.958 119.71 44.958H122.335V46.2826C122.132 46.8523 121.779 47.2938 121.277 47.6072Z" fill="#202020"/>
<path fill-rule="evenodd" clip-rule="evenodd" d="M124.153 0H83.4601L82.6123 0.890186V29.3762L83.4601 30.2663H124.153L125 29.3762V0.890186L124.153 0ZM117.839 24.7064V22.3268H108.781L114.181 16.6922C115.308 15.5252 116.073 14.4858 116.477 13.5741C116.88 12.6624 117.082 11.6959 117.082 10.6748C117.082 9.03365 116.536 7.73899 115.442 6.79078C114.349 5.82434 112.877 5.34112 111.027 5.34112C109.647 5.34112 108.394 5.59641 107.267 6.10698C106.157 6.61755 105.257 7.32871 104.567 8.24044L106.283 9.85421C107.343 8.46838 108.848 7.77546 110.799 7.77546C112.011 7.77546 112.936 8.05809 113.575 8.62337C114.231 9.17041 114.559 9.94539 114.559 10.9483C114.559 11.623 114.408 12.2977 114.105 12.9724C113.802 13.6288 113.213 14.4129 112.339 15.3246L105.147 22.8465V24.7064H117.839ZM100.395 14.7502C99.2177 13.7109 97.3673 13.1912 94.8441 13.1912H92.8759L93.3554 7.93957H101.203V5.55994H91.2358L90.3022 15.5708H94.3142C96.2655 15.5708 97.6449 15.8717 98.4523 16.4734C99.2597 17.0569 99.6635 17.9231 99.6635 19.0719C99.6635 20.1295 99.2934 20.9683 98.5532 21.5883C97.8299 22.19 96.8038 22.4909 95.4749 22.4909C94.4319 22.4909 93.4395 22.3085 92.4975 21.9438C91.5554 21.5609 90.7817 21.0595 90.1761 20.4395L89.0154 22.6003C89.7724 23.3297 90.7312 23.9041 91.8919 24.3235C93.0526 24.7246 94.2553 24.9252 95.5001 24.9252C96.9636 24.9252 98.1916 24.6699 99.184 24.1594C100.193 23.6306 100.942 22.9194 101.43 22.0259C101.934 21.1142 102.187 20.093 102.187 18.9625C102.187 17.1755 101.59 15.7714 100.395 14.7502Z" fill="#F98C37"/>
</svg>
