<svg width="58" height="58" viewBox="0 0 58 58" fill="none" xmlns="http://www.w3.org/2000/svg">
<path fill-rule="evenodd" clip-rule="evenodd" d="M49.9249 2.9236C51.0965 1.75203 52.996 1.75203 54.1675 2.9236L55.0039 3.76001C56.1755 4.93158 56.1755 6.83107 55.0039 8.00265L42.4993 20.5073L37.4149 15.4335L49.9249 2.9236ZM36.0007 16.8478L41.0851 21.9215L40.1914 22.8152C39.8026 23.204 39.1729 23.206 38.7817 22.8197L38.1352 22.1814L38.1307 22.1769L35.5049 19.5511L35.4998 19.546L35.106 19.1464C34.7203 18.7551 34.7226 18.1259 35.1111 17.7374L36.0007 16.8478ZM34.7927 21.6673L36.0139 22.8885L31.2929 27.6095L30.2461 28.6563C29.9089 28.9936 29.3621 28.9936 29.0249 28.6563C28.6877 28.3191 28.6877 27.7724 29.0249 27.4352L29.8923 26.5678L34.7927 21.6673ZM33.6969 16.3231C32.6333 17.3868 32.5346 19.0517 33.4047 20.2269L29.2025 24.4291C25.3667 20.9514 19.2585 21.982 16.7897 26.567L8.0603 42.7787C7.29977 44.1912 7.4566 45.9213 8.45871 47.1739L9.51957 48.5H1H0V49.5V56.9997V57.9997H1H57H58V56.9997V49.5V42.5V35V26.9997V25.9972L56.9975 25.9997L40.4975 26.0411L39.5 26.0436V27.0411V34.034L35.915 34.0076C35.8669 31.995 35.0653 29.9802 33.4411 28.4299L33.375 28.3558L37.4333 24.2975C38.6104 25.4012 40.4579 25.3771 41.6056 24.2294L43.2071 22.6279L56.4181 9.41686C58.3708 7.46424 58.3708 4.29842 56.4181 2.34579L55.5817 1.50939C53.6291 -0.44323 50.4633 -0.443237 48.5107 1.50939L35.2929 14.7272L33.6969 16.3231ZM18.5506 27.5152C20.3864 24.1059 24.9052 23.3169 27.7861 25.8455L27.6107 26.0209C26.4924 27.1392 26.4924 28.9523 27.6107 30.0706C28.7289 31.1888 30.542 31.1888 31.6603 30.0706L31.9585 29.7724L31.9762 29.7922L32.0047 29.8241L32.0358 29.8535C33.3913 31.1337 33.9925 32.8424 33.9094 34.5069L33.8768 34.9018C33.8038 35.5333 33.6319 36.1529 33.365 36.7343C32.8802 37.6919 32.0953 38.4777 31.1504 39.1566C30.8234 39.3916 30.4872 39.6074 30.1473 39.8082L26.5526 41.6056L17.5528 46.1055L17 46.3819L13.7221 48.0208C12.8786 48.4426 11.855 48.2178 11.2659 47.4814L10.0204 45.9245C9.51939 45.2982 9.44098 44.4332 9.82124 43.7269L18.5506 27.5152ZM56 48.5H19V47.6179L27.2358 43.5H56V48.5ZM56 41.5H31.2358L31.4938 41.371C33.204 40.5159 34.4424 39.1652 35.1666 37.6057C35.4121 37.1155 35.6057 36.5837 35.7313 36.0064L40.4926 36.0414V36.0414L40.5025 36.0414L56 36.0025V41.5ZM56 28.0022V34.0025L41.5 34.0389V28.0386L56 28.0022ZM18 50.5H56V55.9997H2V50.5H18ZM24.0166 27.6408C24.5433 27.4746 24.8355 26.9128 24.6692 26.3862C24.503 25.8595 23.9412 25.5673 23.4146 25.7336C21.5218 26.3311 19.83 27.6352 18.7897 29.5672L13.9657 38.526C13.7039 39.0122 13.8858 39.6187 14.3721 39.8805C14.8584 40.1424 15.4648 39.9604 15.7267 39.4742L20.5506 30.5154C21.3328 29.0628 22.5969 28.089 24.0166 27.6408ZM13.9139 43C13.728 43.186 13.47 43.293 13.207 43.293C12.944 43.293 12.686 43.186 12.5 43C12.3139 42.814 12.207 42.556 12.207 42.293C12.207 42.029 12.314 41.772 12.5 41.586C12.686 41.399 12.944 41.293 13.207 41.293C13.47 41.293 13.728 41.399 13.9139 41.586C14.1 41.772 14.207 42.029 14.207 42.293C14.207 42.556 14.0999 42.814 13.9139 43Z" fill="#202020"/>
</svg>
