<svg width="59" height="58" viewBox="0 0 59 58" fill="none" xmlns="http://www.w3.org/2000/svg">
<path fill-rule="evenodd" clip-rule="evenodd" d="M19.0003 0C17.3435 0 16.0003 1.34314 16.0003 2.99999L16.0003 3.24651C8.72794 5.41968 4.77376 9.27948 2.76784 14.4307C0.741951 19.6333 0.752205 26.0535 1.00055 33.0178L1.00039 35.9999C1.00039 37.6569 2.34353 39 4.00039 39H5.00039V48C5.00039 51.0681 7.46159 53.5766 10.8253 55.2584C14.2487 56.9701 18.9082 58 24.0004 58C30.6029 58 36.54 56.2647 39.9551 53.5H40.0589C40.4893 53.5 40.8714 53.7754 41.0075 54.1838L41.5959 55.9487C42.0042 57.1737 43.1506 58 44.4419 58H56.0004C57.6572 58 59.0004 56.6569 59.0004 55C59.0004 53.3431 57.6572 52 56.0004 52H48.5004C48.2242 52 48.0004 51.7761 48.0004 51.5C48.0004 51.2239 48.2242 51 48.5004 51H52.2504C54.0453 51 55.5004 49.5449 55.5004 47.75C55.5004 45.9551 54.0453 44.5 52.2504 44.5H43.6982C43.1459 44.5 42.6982 44.0523 42.6982 43.5V40.1925L46.8429 36.0477L47.9567 37.1987L48.6636 37.9292L49.3824 37.2104L50.3154 36.2774C52.268 34.3248 52.268 31.1591 50.3155 29.2064L46.8879 25.7787L54.2075 18.4591L57.3454 15.3211C59.0503 13.6162 59.0503 10.8521 57.3454 9.14717C55.6406 7.44229 52.8764 7.44229 51.1715 9.14717L48.0258 12.2929L44.857 15.4617C43.0817 12.0821 41.2634 9.37336 39.0969 7.33515C36.8392 5.21129 34.2383 3.84768 31.0003 3.17071V3C31.0003 1.34315 29.6572 0 28.0003 0H26.0003H21.0003H19.0003ZM4.63152 15.1565C6.33449 10.7832 9.61936 7.37664 16.0187 5.3339C16.1848 6.83361 17.4563 8 19.0003 8H21.0003H26.0003H28.0003C29.5842 8 30.8814 6.77258 30.9926 5.21704C33.6973 5.84701 35.8428 7.01984 37.7265 8.79186C39.7746 10.7187 41.5487 13.3869 43.3736 16.9451L40.714 19.6047L38.2972 17.1882C36.3446 15.2356 33.1789 15.2357 31.2263 17.1883L30.2933 18.1213L29.574 18.8405L30.2651 19.5084C28.3046 19.1635 26.2201 19 24.0004 19C18.9082 19 14.2487 20.0299 10.8253 21.7416C7.46159 23.4234 5.00039 25.9319 5.00039 29V30H4.00039C3.6187 30 3.25368 30.0713 2.9179 30.2012C2.78889 24.3502 3.02435 19.2838 4.63152 15.1565ZM45.4737 24.3644L42.1282 21.0189L45.3001 17.847L48.7341 14.4131L52.085 17.7531L45.4737 24.3644ZM53.4992 16.3389L50.1483 12.9988L52.5857 10.5614C53.5096 9.63755 55.0074 9.63755 55.9312 10.5614C56.8551 11.4852 56.8551 12.983 55.9312 13.9069L53.4992 16.3389ZM24.0004 21C26.3131 21 28.4405 21.1857 30.4058 21.5684L29.0633 22.9109C27.7098 22.6677 25.531 22.5 24.0004 22.5C18.8891 22.5 14.5776 23.6554 11.5088 25.4927C9.4809 26.7068 7.93388 28.2643 7.12587 30.022C7.04208 29.6839 7.00039 29.3427 7.00039 29C7.00039 27.0975 8.56862 25.106 11.7197 23.5305C14.8109 21.9848 19.1514 21 24.0004 21ZM24.0004 24.5C24.9876 24.5 26.227 24.5748 27.2881 24.6861L21.7906 30.1836L21.0835 30.8907L21.7906 31.5978L24.5613 34.3686L27.2995 37.1067L30.0376 39.8448L33.0087 42.816L35.8346 45.6418L36.5417 46.349L37.2488 45.6418L40.6982 42.1925V43.5C40.6982 45.1569 42.0413 46.5 43.6982 46.5H52.2504C52.9407 46.5 53.5004 47.0596 53.5004 47.75C53.5004 48.4404 52.9407 49 52.2504 49H48.5004C47.1197 49 46.0004 50.1193 46.0004 51.5C46.0004 52.8807 47.1197 54 48.5004 54H56.0004C56.5527 54 57.0004 54.4477 57.0004 55C57.0004 55.5523 56.5527 56 56.0004 56H44.4419C44.0115 56 43.6293 55.7246 43.4932 55.3162L42.9049 53.5513C42.4966 52.3263 41.3502 51.5 40.0589 51.5H39.5975H39.5862H35.0004C33.3435 51.5 32.0004 50.1569 32.0004 48.5V46C32.0004 44.3431 30.6572 43 29.0004 43C27.3435 43 26.0004 44.3431 26.0004 46V47.5C26.0004 48.0523 25.5527 48.5 25.0004 48.5C24.4481 48.5 24.0004 48.0523 24.0004 47.5V42V40C24.0004 38.3292 22.6535 37.0359 21.0576 36.946C15.1496 36.6129 10.6987 34.7857 8.51589 32.4444C8.67083 30.6338 9.98849 28.734 12.5361 27.2087C15.2321 25.5946 19.1705 24.5 24.0004 24.5ZM35.0004 53.5H36.2196C33.1522 55.018 28.848 56 24.0004 56C19.1514 56 14.8109 55.0152 11.7197 53.4695C8.56862 51.894 7.00039 49.9025 7.00039 48V38.765C7.34702 39.0074 7.71842 39.2394 8.10834 39.4606C9.32968 40.1534 10.794 40.7747 12.3918 41.2954C15.2912 42.2402 18.6943 42.8748 22.0004 42.9834V47.5C22.0004 49.1569 23.3435 50.5 25.0004 50.5C26.6572 50.5 28.0004 49.1569 28.0004 47.5V46C28.0004 45.4477 28.4481 45 29.0004 45C29.5527 45 30.0004 45.4477 30.0004 46V48.5C30.0004 51.2614 32.239 53.5 35.0004 53.5ZM9.09514 37.721C8.15603 37.1883 7.45498 36.6492 7.00039 36.1419V33.7513C9.67279 36.6658 14.7632 38.5943 20.945 38.9428C21.5548 38.9772 22.0004 39.4617 22.0004 40V40.9823C18.9148 40.874 15.7239 40.2777 13.0115 39.3938C11.5097 38.9044 10.1742 38.3331 9.09514 37.721ZM4.00039 32H5.00039V36.5V37H4.00039C3.4481 37 3.00039 36.5523 3.00039 36.0001L3.00055 33.0001C3.00055 32.4476 3.44821 32 4.00039 32ZM30.0955 24.7071L32.8106 21.992L45.4404 34.6218L40.9911 39.0712L36.5417 43.5205L35.1333 42.1121L42.1516 35.1575C42.544 34.7687 42.5468 34.1356 42.1581 33.7433C41.7694 33.351 41.1362 33.3481 40.7439 33.7368L33.7191 40.6979L32.1621 39.141L39.1805 32.1863C39.5728 31.7976 39.5757 31.1644 39.1869 30.7721C38.7982 30.3798 38.165 30.3769 37.7727 30.7657L30.7479 37.7267L29.424 36.4028L36.4424 29.4482C36.8347 29.0595 36.8376 28.4263 36.4488 28.034C36.0601 27.6417 35.4269 27.6388 35.0346 28.0276L28.0098 34.9886L26.6859 33.6647L33.7042 26.7101C34.0965 26.3213 34.0994 25.6882 33.7107 25.2959C33.322 24.9036 32.6888 24.9007 32.2965 25.2894L25.2717 32.2505L23.9119 30.8907L30.0955 24.7071ZM18.0003 3C18.0003 2.44771 18.448 2 19.0003 2H20.0003V6H19.0003C18.448 6 18.0003 5.55229 18.0003 5L18.0003 4L18.0003 3ZM22.0003 6V2H25.0003V6H22.0003ZM27.0003 6V2H28.0003C28.5526 2 29.0003 2.44772 29.0003 3V4V5C29.0003 5.55228 28.5526 6 28.0003 6H27.0003ZM32.6405 18.6025C33.812 17.4309 35.7115 17.4309 36.8831 18.6024L40.0069 21.7261L44.7666 26.4858L48.9012 30.6206C50.0728 31.7922 50.0727 33.6916 48.9012 34.8632L48.687 35.0774L47.5732 33.9264L47.5675 33.9205L47.5617 33.9147L33.5177 19.8707L33.5117 19.8647L33.5055 19.8587L32.4268 18.8162L32.6405 18.6025ZM19.2498 28.4684C19.7846 28.3307 20.1065 27.7854 19.9688 27.2506C19.8311 26.7158 19.2858 26.3939 18.751 26.5316C15.6267 27.3362 13.4852 28.101 11.2933 30.2929C10.9028 30.6834 10.9028 31.3166 11.2933 31.7071C11.6838 32.0976 12.317 32.0976 12.7075 31.7071C14.5156 29.899 16.2327 29.2454 19.2498 28.4684ZM10.5004 45C10.5004 44.4477 10.0527 44 9.50039 44C8.9481 44 8.50039 44.4477 8.50039 45V46.5C8.50039 49.7966 11.3063 51.8069 14.8748 52.9522C15.4007 53.1209 15.9638 52.8315 16.1325 52.3056C16.3013 51.7797 16.0118 51.2166 15.486 51.0478C12.0619 49.9489 10.5004 48.3783 10.5004 46.5V45ZM23.4142 27.5C23.2283 27.686 22.9703 27.793 22.7073 27.793C22.4443 27.793 22.1863 27.686 22.0003 27.5C21.8142 27.314 21.7073 27.056 21.7073 26.793C21.7073 26.529 21.8143 26.272 22.0003 26.086C22.1863 25.899 22.4443 25.793 22.7073 25.793C22.9703 25.793 23.2283 25.899 23.4142 26.086C23.6003 26.272 23.7073 26.529 23.7073 26.793C23.7073 27.056 23.6002 27.314 23.4142 27.5ZM19.7073 53.707C19.5214 53.893 19.2634 54 19.0004 54C18.7374 54 18.4794 53.893 18.2934 53.707C18.1073 53.521 18.0004 53.263 18.0004 53C18.0004 52.736 18.1074 52.479 18.2934 52.293C18.4794 52.106 18.7374 52 19.0004 52C19.2634 52 19.5214 52.106 19.7073 52.293C19.8934 52.479 20.0004 52.736 20.0004 53C20.0004 53.263 19.8933 53.521 19.7073 53.707Z" fill="#202020"/>
</svg>
