<svg width="57" height="56" viewBox="0 0 57 56" fill="none" xmlns="http://www.w3.org/2000/svg">
<path fill-rule="evenodd" clip-rule="evenodd" d="M0 0H1H13H13.4055L13.6965 0.282461L30.4754 16.5698C30.5204 16.4768 30.5698 16.3853 30.6241 16.2961C31.0882 15.5334 31.8743 15 33 15C33.7101 15 34.3203 15.2134 34.8006 15.6181C35.2639 16.0084 35.5338 16.5153 35.6959 16.9882C36.0007 17.877 36.0003 18.8912 36 19.4541V19.4541L36 19.5V33.5H50.5V19.5L50.5 19.4541V19.4541C50.4997 18.8912 50.4993 17.877 50.8041 16.9882C50.9662 16.5153 51.2361 16.0084 51.6994 15.6181C52.1797 15.2134 52.7899 15 53.5 15C54.2101 15 54.8203 15.2134 55.3006 15.6181C55.7639 16.0084 56.0338 16.5153 56.1959 16.9882C56.5007 17.877 56.5003 18.8912 56.5 19.4541V19.4541L56.5 19.5V55V56H55.5H51.5H35H31H30.5858L30.2929 55.7071L0.292893 25.7071L0 25.4142V25V23V4.5V1V0ZM50.5 35.5H36V37.5H50.5V35.5ZM50.5 39.5H36V43H50.5V39.5ZM50.5 45H36V48.5H50.5V45ZM50.5 50.5H36V54H50.5V50.5ZM54.5 54V20.5H52.5V34.5V38.5V44V49.5V54H54.5ZM54.4685 18.5C54.442 18.194 54.3933 17.8972 54.3041 17.6368C54.2162 17.3805 54.1111 17.2312 54.0119 17.1475C53.9297 17.0783 53.7899 17 53.5 17C53.2101 17 53.0703 17.0783 52.9881 17.1475C52.8889 17.2312 52.7838 17.3805 52.6959 17.6368C52.6067 17.8972 52.558 18.194 52.5315 18.5H54.4685ZM34 54V49.5V44V38.5V34.5V20.5H32V24V34.5V54H34ZM30 52.5858L2 24.5858V24H8.5V27V28H9.5H16V30.5V31.5H17H23.5V34.5V35.5H24.5H30V52.5858ZM30 33.5V24.4216L25.5 20.0341V30.5V33.5H30ZM23.5 18.0841L18 12.7216V27V29.5H23.5V18.0841ZM16 10.7716L10.5932 5.5H10.5V23V26H16V10.7716ZM8.5 5.5V22H2V5.5H8.5ZM2 3.5H9.5H11H11.4068L11.6981 3.784L17.6981 9.634L25.1981 16.9465L30 21.6284V19.5V19.4899V19.4895C30 19.3245 30 19.1232 30.0065 18.9019L12.5945 2H2V3.5ZM32.0315 18.5H33.9685C33.942 18.194 33.8933 17.8972 33.8041 17.6368C33.7162 17.3805 33.6111 17.2312 33.5119 17.1475C33.4297 17.0783 33.2899 17 33 17C32.7733 17 32.6428 17.0485 32.5647 17.0936C32.4848 17.1398 32.4073 17.213 32.3326 17.3358C32.1738 17.5968 32.0758 18.0005 32.0315 18.5ZM15 34.5C15 33.9477 15.4477 33.5 16 33.5H21H22V34.5V37.5H27H28V38.5V42C28 42.5523 27.5523 43 27 43C26.4477 43 26 42.5523 26 42V39.5H21H20V38.5V35.5H16C15.4477 35.5 15 35.0523 15 34.5ZM13 32C13.263 32 13.521 31.893 13.7069 31.707C13.8929 31.521 14 31.263 14 31C14 30.736 13.893 30.479 13.7069 30.293C13.521 30.106 13.263 30 13 30C12.737 30 12.479 30.106 12.293 30.293C12.107 30.479 12 30.736 12 31C12 31.263 12.1069 31.521 12.293 31.707C12.479 31.893 12.737 32 13 32ZM27.7069 46.707C27.521 46.893 27.263 47 27 47C26.737 47 26.479 46.893 26.293 46.707C26.1069 46.521 26 46.263 26 46C26 45.736 26.107 45.479 26.293 45.293C26.479 45.106 26.737 45 27 45C27.263 45 27.521 45.106 27.7069 45.293C27.893 45.479 28 45.736 28 46C28 46.263 27.8929 46.521 27.7069 46.707Z" fill="#202020"/>
</svg>
