<svg width="22" height="22" viewBox="0 0 22 22" fill="none" xmlns="http://www.w3.org/2000/svg">
<path fill-rule="evenodd" clip-rule="evenodd" d="M22 3.64766C22 1.70984 20.2902 0 18.3523 0H3.64766C1.70984 0 0 1.70984 0 3.64766V18.3523C0 20.2901 1.70984 22 3.64766 22H18.3523C20.2902 22 22 20.2901 22 18.3523V3.64766ZM18.8195 14.0137C18.8355 14.0291 18.8514 14.0445 18.8514 14.0753C18.8514 14.137 18.8514 14.1986 18.9787 14.3219V14.5685C18.9787 14.6918 18.915 14.7534 18.7877 14.8151C18.6604 14.8767 18.4694 14.9384 18.2784 14.9384L16.114 15H16.1139C15.9866 15 15.8593 15 15.6684 14.9384C15.4774 14.8767 15.3501 14.8151 15.2227 14.7534L15.0318 14.6301C14.9045 14.5685 14.7135 14.3836 14.4589 14.1371L14.4588 14.137L14.4586 14.1367C14.2041 13.8903 14.0132 13.7054 13.8859 13.5205C13.7586 13.3356 13.5676 13.1507 13.3766 13.0274C13.2493 12.9041 13.0583 12.8425 12.931 12.9041H12.8673L12.74 13.0274C12.6763 13.089 12.6127 13.1507 12.549 13.274C12.5133 13.3432 12.4976 13.4125 12.4795 13.4926C12.4653 13.5552 12.4496 13.6244 12.4217 13.7055C12.358 13.8904 12.358 14.0753 12.358 14.3219V14.5685C12.358 14.5993 12.3421 14.6147 12.3262 14.6301C12.3103 14.6455 12.2944 14.661 12.2944 14.6918L12.2307 14.7534C12.1034 14.8767 11.9761 14.9384 11.7851 14.9384H10.8302C10.4482 15 10.0663 14.9384 9.62066 14.8151C9.2387 14.6918 8.85673 14.5685 8.53843 14.3836L8.53833 14.3835C8.22006 14.1986 7.90181 14.0137 7.64719 13.8288C7.39255 13.6438 7.20158 13.4589 7.07426 13.3356L6.88326 13.1507L6.62863 12.9041C6.56497 12.7808 6.37399 12.5343 6.05569 12.1644C5.85702 11.9335 5.68315 11.6787 5.50313 11.4148C5.39472 11.2559 5.28408 11.0937 5.16445 10.9315C5.08736 10.8009 4.9986 10.6533 4.9017 10.4922C4.67854 10.1211 4.41221 9.67828 4.14589 9.20548C3.76392 8.46575 3.38197 7.72602 3.06366 6.9863C3 6.86301 3 6.80137 3 6.73973V6.61644L3.06366 6.55479C3.12732 6.49315 3.25464 6.43151 3.50928 6.43151H5.80105C5.83288 6.43151 5.86471 6.44692 5.89654 6.46233C5.92837 6.47774 5.96019 6.49315 5.99202 6.49315C6.05569 6.49315 6.11935 6.55479 6.11935 6.55479H6.18302C6.24668 6.61644 6.31033 6.67808 6.37399 6.80137C6.43765 6.95548 6.50131 7.09418 6.56497 7.23288C6.62863 7.37157 6.6923 7.51027 6.75595 7.66438C6.88327 7.9726 7.01059 8.21918 7.07426 8.34247L7.20156 8.58904C7.28857 8.8418 7.40531 9.03698 7.51115 9.21393C7.56018 9.29591 7.60688 9.37398 7.64719 9.45205C7.77451 9.69863 7.90184 9.88356 8.02916 10.0069C8.09282 10.1301 8.22014 10.2534 8.34746 10.3151C8.41112 10.3767 8.53843 10.4384 8.6021 10.4384C8.67668 10.4384 8.72942 10.4172 8.77311 10.3997C8.804 10.3873 8.83036 10.3767 8.85673 10.3767C8.92039 10.3767 8.92039 10.3151 8.92039 10.3151C8.96541 10.3151 8.9786 10.2842 9.00497 10.2226C9.0159 10.1971 9.02908 10.1662 9.04773 10.1301C9.11139 10.0685 9.17503 9.9452 9.17503 9.76027C9.17503 9.67955 9.18716 9.59883 9.20084 9.50786C9.21848 9.39041 9.2387 9.25588 9.2387 9.08219V8.09589C9.2387 7.84931 9.23869 7.66438 9.17503 7.47945C9.15071 7.40881 9.13569 7.34716 9.12286 7.29451C9.10209 7.20932 9.08707 7.14769 9.04773 7.10959L8.98406 6.9863C8.85674 6.80136 8.6021 6.67808 8.28379 6.61644C8.22013 6.61644 8.22014 6.55479 8.34746 6.43151C8.41112 6.30822 8.53844 6.24658 8.66576 6.18493C8.9204 6.06165 9.62067 6 10.6392 6C11.0849 6 11.4668 6.06164 11.7851 6.12329C11.8169 6.15411 11.8647 6.16952 11.9124 6.18493C11.9602 6.20034 12.0079 6.21575 12.0397 6.24657L12.2307 6.43151C12.2307 6.46233 12.2466 6.50856 12.2626 6.55479C12.2785 6.60102 12.2944 6.64725 12.2944 6.67808V7.04794V7.47945V8.03425V8.71233V9.08219V9.45205V9.76027C12.3223 9.81433 12.338 9.86838 12.3521 9.91724C12.3703 9.97982 12.386 10.0339 12.4217 10.0685L12.6127 10.2534C12.6127 10.3151 12.6763 10.3151 12.74 10.3151C12.74 10.3767 12.8673 10.3151 12.931 10.2534C12.9721 10.1738 13.0397 10.1199 13.1168 10.0585C13.1591 10.0248 13.2042 9.98888 13.2493 9.9452C13.3425 9.85495 13.4357 9.73165 13.5539 9.57531C13.5971 9.5181 13.6437 9.45647 13.6949 9.39041C13.8859 9.14385 14.0768 8.83565 14.2678 8.52745L14.2678 8.52739C14.332 8.40312 14.3962 8.28135 14.4598 8.16057C14.7119 7.68225 14.9558 7.21946 15.1591 6.67808C15.1591 6.61644 15.1591 6.61644 15.2227 6.55481L15.2227 6.55479L15.2864 6.49315H15.3501H15.4137H15.541H15.732H18.1511C18.3421 6.43151 18.5331 6.43151 18.6604 6.49315C18.7877 6.49315 18.8514 6.5548 18.915 6.61644L18.9787 6.67808C19.106 7.04794 18.6604 7.84932 17.7055 9.08219C17.5744 9.20909 17.4734 9.33598 17.3406 9.5027C17.2798 9.57895 17.2125 9.66354 17.1326 9.76027C17.0998 9.80111 17.068 9.84061 17.0373 9.87882C16.6505 10.3598 16.4276 10.6369 16.3686 10.8082C16.305 11.0548 16.305 11.2397 16.4959 11.4863C16.5306 11.5198 16.5699 11.5624 16.6164 11.6129C16.7412 11.7482 16.9181 11.9399 17.1962 12.1644C17.9601 12.8425 18.5331 13.4589 18.7877 13.9521C18.7877 13.9829 18.8036 13.9983 18.8195 14.0137Z" fill="#202020" fill-opacity="0.4"/>
</svg>
